<svg width="172" height="61" viewBox="0 0 172 61" fill="none" xmlns="http://www.w3.org/2000/svg">
<line x1="108" y1="57.5" x2="148" y2="57.5" stroke="white"/>
<rect y="3" width="57.225" height="56" rx="12" fill="#004EF7"/>
<path d="M12.3884 32.28C12.3884 30.904 12.6444 29.696 13.1564 28.656C13.6844 27.616 14.3964 26.816 15.2924 26.256C16.1884 25.696 17.1884 25.416 18.2924 25.416C19.2364 25.416 20.0604 25.608 20.7644 25.992C21.4844 26.376 22.0364 26.88 22.4204 27.504V25.608H26.5244V39H22.4204V37.104C22.0204 37.728 21.4604 38.232 20.7404 38.616C20.0364 39 19.2124 39.192 18.2684 39.192C17.1804 39.192 16.1884 38.912 15.2924 38.352C14.3964 37.776 13.6844 36.968 13.1564 35.928C12.6444 34.872 12.3884 33.656 12.3884 32.28ZM22.4204 32.304C22.4204 31.28 22.1324 30.472 21.5564 29.88C20.9964 29.288 20.3084 28.992 19.4924 28.992C18.6764 28.992 17.9804 29.288 17.4044 29.88C16.8444 30.456 16.5644 31.256 16.5644 32.28C16.5644 33.304 16.8444 34.12 17.4044 34.728C17.9804 35.32 18.6764 35.616 19.4924 35.616C20.3084 35.616 20.9964 35.32 21.5564 34.728C22.1324 34.136 22.4204 33.328 22.4204 32.304Z" fill="#F1F1F1"/>
<path d="M44.9725 32.28C44.9725 30.904 44.7165 29.696 44.2045 28.656C43.6765 27.616 42.9645 26.816 42.0685 26.256C41.1725 25.696 40.1725 25.416 39.0685 25.416C38.1245 25.416 37.3005 25.608 36.5965 25.992C35.8765 26.376 35.3245 26.88 34.9405 27.504V25.608H30.8365V39H34.9405V37.104C35.3405 37.728 35.9005 38.232 36.6205 38.616C37.3245 39 38.1485 39.192 39.0925 39.192C40.1805 39.192 41.1725 38.912 42.0685 38.352C42.9645 37.776 43.6765 36.968 44.2045 35.928C44.7165 34.872 44.9725 33.656 44.9725 32.28ZM34.9405 32.304C34.9405 31.28 35.2285 30.472 35.8045 29.88C36.3645 29.288 37.0525 28.992 37.8685 28.992C38.6845 28.992 39.3805 29.288 39.9565 29.88C40.5165 30.456 40.7965 31.256 40.7965 32.28C40.7965 33.304 40.5165 34.12 39.9565 34.728C39.3805 35.32 38.6845 35.616 37.8685 35.616C37.0525 35.616 36.3645 35.32 35.8045 34.728C35.2285 34.136 34.9405 33.328 34.9405 32.304Z" fill="#F1F1F1"/>
<path d="M71.1814 19.28C71.1814 17.904 71.4374 16.696 71.9494 15.656C72.4774 14.616 73.1894 13.816 74.0854 13.256C74.9814 12.696 75.9814 12.416 77.0854 12.416C78.0294 12.416 78.8534 12.608 79.5574 12.992C80.2774 13.376 80.8294 13.88 81.2134 14.504V12.608H85.3174V26H81.2134V24.104C80.8134 24.728 80.2534 25.232 79.5334 25.616C78.8294 26 78.0054 26.192 77.0614 26.192C75.9734 26.192 74.9814 25.912 74.0854 25.352C73.1894 24.776 72.4774 23.968 71.9494 22.928C71.4374 21.872 71.1814 20.656 71.1814 19.28ZM81.2134 19.304C81.2134 18.28 80.9254 17.472 80.3494 16.88C79.7894 16.288 79.1014 15.992 78.2854 15.992C77.4694 15.992 76.7734 16.288 76.1974 16.88C75.6374 17.456 75.3574 18.256 75.3574 19.28C75.3574 20.304 75.6374 21.12 76.1974 21.728C76.7734 22.32 77.4694 22.616 78.2854 22.616C79.1014 22.616 79.7894 22.32 80.3494 21.728C80.9254 21.136 81.2134 20.328 81.2134 19.304ZM96.4464 12.464C98.0144 12.464 99.2624 12.976 100.19 14C101.134 15.008 101.606 16.4 101.606 18.176V26H97.5264V18.728C97.5264 17.832 97.2944 17.136 96.8304 16.64C96.3664 16.144 95.7424 15.896 94.9584 15.896C94.1744 15.896 93.5504 16.144 93.0864 16.64C92.6224 17.136 92.3904 17.832 92.3904 18.728V26H88.2864V12.608H92.3904V14.384C92.8064 13.792 93.3664 13.328 94.0704 12.992C94.7744 12.64 95.5664 12.464 96.4464 12.464ZM110.554 26.192C109.242 26.192 108.058 25.912 107.002 25.352C105.962 24.792 105.138 23.992 104.53 22.952C103.938 21.912 103.642 20.696 103.642 19.304C103.642 17.928 103.946 16.72 104.554 15.68C105.162 14.624 105.994 13.816 107.05 13.256C108.106 12.696 109.29 12.416 110.602 12.416C111.914 12.416 113.098 12.696 114.154 13.256C115.21 13.816 116.042 14.624 116.65 15.68C117.258 16.72 117.562 17.928 117.562 19.304C117.562 20.68 117.25 21.896 116.626 22.952C116.018 23.992 115.178 24.792 114.106 25.352C113.05 25.912 111.866 26.192 110.554 26.192ZM110.554 22.64C111.338 22.64 112.002 22.352 112.546 21.776C113.106 21.2 113.386 20.376 113.386 19.304C113.386 18.232 113.114 17.408 112.57 16.832C112.042 16.256 111.386 15.968 110.602 15.968C109.802 15.968 109.138 16.256 108.61 16.832C108.082 17.392 107.818 18.216 107.818 19.304C107.818 20.376 108.074 21.2 108.586 21.776C109.114 22.352 109.77 22.64 110.554 22.64ZM127.204 22.52V26H125.116C123.628 26 122.468 25.64 121.636 24.92C120.804 24.184 120.388 22.992 120.388 21.344V16.016H118.756V12.608H120.388V9.344H124.492V12.608H127.18V16.016H124.492V21.392C124.492 21.792 124.588 22.08 124.78 22.256C124.972 22.432 125.292 22.52 125.74 22.52H127.204ZM137.722 12.464C139.258 12.464 140.49 12.976 141.418 14C142.346 15.008 142.81 16.4 142.81 18.176V26H138.73V18.728C138.73 17.832 138.498 17.136 138.034 16.64C137.57 16.144 136.946 15.896 136.162 15.896C135.378 15.896 134.754 16.144 134.29 16.64C133.826 17.136 133.594 17.832 133.594 18.728V26H129.49V8.24H133.594V14.408C134.01 13.816 134.578 13.344 135.298 12.992C136.018 12.64 136.826 12.464 137.722 12.464ZM158.285 19.088C158.285 19.472 158.261 19.872 158.213 20.288H148.925C148.989 21.12 149.253 21.76 149.717 22.208C150.197 22.64 150.781 22.856 151.469 22.856C152.493 22.856 153.205 22.424 153.605 21.56H157.973C157.749 22.44 157.341 23.232 156.749 23.936C156.173 24.64 155.445 25.192 154.565 25.592C153.685 25.992 152.701 26.192 151.613 26.192C150.301 26.192 149.133 25.912 148.109 25.352C147.085 24.792 146.285 23.992 145.709 22.952C145.133 21.912 144.845 20.696 144.845 19.304C144.845 17.912 145.125 16.696 145.685 15.656C146.261 14.616 147.061 13.816 148.085 13.256C149.109 12.696 150.285 12.416 151.613 12.416C152.909 12.416 154.061 12.688 155.069 13.232C156.077 13.776 156.861 14.552 157.421 15.56C157.997 16.568 158.285 17.744 158.285 19.088ZM154.085 18.008C154.085 17.304 153.845 16.744 153.365 16.328C152.885 15.912 152.285 15.704 151.565 15.704C150.877 15.704 150.293 15.904 149.813 16.304C149.349 16.704 149.061 17.272 148.949 18.008H154.085ZM164.554 14.84C165.034 14.104 165.634 13.528 166.354 13.112C167.074 12.68 167.874 12.464 168.754 12.464V16.808H167.626C166.602 16.808 165.834 17.032 165.322 17.48C164.81 17.912 164.554 18.68 164.554 19.784V26H160.45V12.608H164.554V14.84Z" fill="#F1F1F1"/>
<path d="M71.1814 41.6329C71.1814 40.2569 71.4374 39.0489 71.9494 38.0089C72.4774 36.9689 73.1894 36.1689 74.0854 35.6089C74.9814 35.0489 75.9814 34.7689 77.0854 34.7689C78.0294 34.7689 78.8534 34.9609 79.5574 35.3449C80.2774 35.7289 80.8294 36.2329 81.2134 36.8569V34.9609H85.3174V48.3529H81.2134V46.4569C80.8134 47.0809 80.2534 47.5849 79.5334 47.9689C78.8294 48.3529 78.0054 48.5449 77.0614 48.5449C75.9734 48.5449 74.9814 48.2649 74.0854 47.7049C73.1894 47.1289 72.4774 46.3209 71.9494 45.2809C71.4374 44.2249 71.1814 43.0089 71.1814 41.6329ZM81.2134 41.6569C81.2134 40.6329 80.9254 39.8249 80.3494 39.2329C79.7894 38.6409 79.1014 38.3449 78.2854 38.3449C77.4694 38.3449 76.7734 38.6409 76.1974 39.2329C75.6374 39.8089 75.3574 40.6089 75.3574 41.6329C75.3574 42.6569 75.6374 43.4729 76.1974 44.0809C76.7734 44.6729 77.4694 44.9689 78.2854 44.9689C79.1014 44.9689 79.7894 44.6729 80.3494 44.0809C80.9254 43.4889 81.2134 42.6809 81.2134 41.6569ZM96.4464 34.8169C98.0144 34.8169 99.2624 35.3289 100.19 36.3529C101.134 37.3609 101.606 38.7529 101.606 40.5289V48.3529H97.5264V41.0809C97.5264 40.1849 97.2944 39.4889 96.8304 38.9929C96.3664 38.4969 95.7424 38.2489 94.9584 38.2489C94.1744 38.2489 93.5504 38.4969 93.0864 38.9929C92.6224 39.4889 92.3904 40.1849 92.3904 41.0809V48.3529H88.2864V34.9609H92.3904V36.7369C92.8064 36.1449 93.3664 35.6809 94.0704 35.3449C94.7744 34.9929 95.5664 34.8169 96.4464 34.8169ZM106.522 33.5689C105.802 33.5689 105.21 33.3609 104.746 32.9449C104.298 32.5129 104.074 31.9849 104.074 31.3609C104.074 30.7209 104.298 30.1929 104.746 29.7769C105.21 29.3449 105.802 29.1289 106.522 29.1289C107.226 29.1289 107.802 29.3449 108.25 29.7769C108.714 30.1929 108.946 30.7209 108.946 31.3609C108.946 31.9849 108.714 32.5129 108.25 32.9449C107.802 33.3609 107.226 33.5689 106.522 33.5689ZM108.562 34.9609V48.3529H104.458V34.9609H108.562ZM128.624 34.8169C130.288 34.8169 131.608 35.3209 132.584 36.3289C133.576 37.3369 134.072 38.7369 134.072 40.5289V48.3529H129.992V41.0809C129.992 40.2169 129.76 39.5529 129.296 39.0889C128.848 38.6089 128.224 38.3689 127.424 38.3689C126.624 38.3689 125.992 38.6089 125.528 39.0889C125.08 39.5529 124.856 40.2169 124.856 41.0809V48.3529H120.776V41.0809C120.776 40.2169 120.544 39.5529 120.08 39.0889C119.632 38.6089 119.008 38.3689 118.208 38.3689C117.408 38.3689 116.776 38.6089 116.312 39.0889C115.864 39.5529 115.64 40.2169 115.64 41.0809V48.3529H111.536V34.9609H115.64V36.6409C116.056 36.0809 116.6 35.6409 117.272 35.3209C117.944 34.9849 118.704 34.8169 119.552 34.8169C120.56 34.8169 121.456 35.0329 122.24 35.4649C123.04 35.8969 123.664 36.5129 124.112 37.3129C124.576 36.5769 125.208 35.9769 126.008 35.5129C126.808 35.0489 127.68 34.8169 128.624 34.8169ZM149.567 41.4409C149.567 41.8249 149.543 42.2249 149.495 42.6409H140.207C140.271 43.4729 140.535 44.1129 140.999 44.5609C141.479 44.9929 142.063 45.2089 142.751 45.2089C143.775 45.2089 144.487 44.7769 144.887 43.9129H149.255C149.031 44.7929 148.623 45.5849 148.031 46.2889C147.455 46.9929 146.727 47.5449 145.847 47.9449C144.967 48.3449 143.983 48.5449 142.895 48.5449C141.583 48.5449 140.415 48.2649 139.391 47.7049C138.367 47.1449 137.567 46.3449 136.991 45.3049C136.415 44.2649 136.127 43.0489 136.127 41.6569C136.127 40.2649 136.407 39.0489 136.967 38.0089C137.543 36.9689 138.343 36.1689 139.367 35.6089C140.391 35.0489 141.567 34.7689 142.895 34.7689C144.191 34.7689 145.343 35.0409 146.351 35.5849C147.359 36.1289 148.143 36.9049 148.703 37.9129C149.279 38.9209 149.567 40.0969 149.567 41.4409ZM145.367 40.3609C145.367 39.6569 145.127 39.0969 144.647 38.6809C144.167 38.2649 143.567 38.0569 142.847 38.0569C142.159 38.0569 141.575 38.2569 141.095 38.6569C140.631 39.0569 140.343 39.6249 140.231 40.3609H145.367ZM157.18 48.5449C156.012 48.5449 154.972 48.3449 154.06 47.9449C153.148 47.5449 152.428 47.0009 151.9 46.3129C151.372 45.6089 151.076 44.8249 151.012 43.9609H155.068C155.116 44.4249 155.332 44.8009 155.716 45.0889C156.1 45.3769 156.572 45.5209 157.132 45.5209C157.644 45.5209 158.036 45.4249 158.308 45.2329C158.596 45.0249 158.74 44.7609 158.74 44.4409C158.74 44.0569 158.54 43.7769 158.14 43.6009C157.74 43.4089 157.092 43.2009 156.196 42.9769C155.236 42.7529 154.436 42.5209 153.796 42.2809C153.156 42.0249 152.604 41.6329 152.14 41.1049C151.676 40.5609 151.444 39.8329 151.444 38.9209C151.444 38.1529 151.652 37.4569 152.068 36.8329C152.5 36.1929 153.124 35.6889 153.94 35.3209C154.772 34.9529 155.756 34.7689 156.892 34.7689C158.572 34.7689 159.892 35.1849 160.852 36.0169C161.828 36.8489 162.388 37.9529 162.532 39.3289H158.74C158.676 38.8649 158.468 38.4969 158.116 38.2249C157.78 37.9529 157.332 37.8169 156.772 37.8169C156.292 37.8169 155.924 37.9129 155.668 38.1049C155.412 38.2809 155.284 38.5289 155.284 38.8489C155.284 39.2329 155.484 39.5209 155.884 39.7129C156.3 39.9049 156.94 40.0969 157.804 40.2889C158.796 40.5449 159.604 40.8009 160.228 41.0569C160.852 41.2969 161.396 41.6969 161.86 42.2569C162.34 42.8009 162.588 43.5369 162.604 44.4649C162.604 45.2489 162.38 45.9529 161.932 46.5769C161.5 47.1849 160.868 47.6649 160.036 48.0169C159.22 48.3689 158.268 48.5449 157.18 48.5449Z" fill="#004EF7"/>
</svg>
